<?xml version="1.0" encoding="UTF-8" standalone="no"?><!DOCTYPE svg PUBLIC "-//W3C//DTD SVG 1.1//EN" "http://www.w3.org/Graphics/SVG/1.1/DTD/svg11.dtd"><svg width="100%" height="100%" viewBox="0 0 1511 1132" version="1.1" xmlns="http://www.w3.org/2000/svg" xmlns:xlink="http://www.w3.org/1999/xlink" xml:space="preserve" xmlns:serif="http://www.serif.com/" style="fill-rule:evenodd;clip-rule:evenodd;stroke-linejoin:round;stroke-miterlimit:2;"><circle cx="755.5" cy="366.569" r="199.431" style="fill:#fefefe;"/><circle cx="365.879" cy="714.138" r="199.431" style="fill:#fefefe;"/><path d="M588.929,532.121l0.587,0c2.823,4.214 6.326,7.782 9.377,11.816c3.16,4.177 5.817,8.734 8.713,13.094c1.2,1.806 3.348,4.071 4.13,6.018l-21.531,0.056c-3.904,0.013 -8.189,-0.343 -12.043,0.24l-0.2,0.046c-1.7,-1.934 -2.949,-3.982 -4.269,-6.174l15.236,-25.096Z" style="fill:#d9e5ea;fill-rule:nonzero;"/><path d="M556.728,501.823c8.017,4.875 15.568,13.354 22.206,19.991c3.252,3.25 7.309,6.651 9.995,10.307l-15.236,25.096l-31.299,-32.217l14.334,-23.177Z" style="fill:#419d36;fill-rule:nonzero;"/><path d="M920.516,530.459c3.246,-5.429 8.345,-10.41 12.761,-14.898c5.954,-6.05 12.103,-12.228 18.928,-17.309l15.593,24.777c-2.955,5.753 -11.153,11.078 -15.783,15.88c-5.149,5.342 -10.142,11.103 -14.594,17.037l-16.905,-25.487Z" style="fill:#419d36;fill-rule:nonzero;"/><path d="M493.688,462.385c9.735,6.102 20.547,10.252 30.415,16.336l16.898,11.076c5.284,3.853 10.394,8.183 16.217,11.214l-0.49,0.812l-14.334,23.177c-14.452,-13.362 -32.126,-25.096 -49.642,-34.046l0.275,-22.811l0.661,-5.758Z" style="fill:#d9e5ea;fill-rule:nonzero;"/><path d="M1013.86,454.348l0.654,3.561l-0.673,32.65c-12.859,6.894 -24.738,15.446 -36.462,24.086c-2.469,1.821 -8.544,5.483 -9.585,8.384l-15.593,-24.777l-0.335,-0.965c4.053,-0.849 11.459,-8.23 15.231,-10.829c8.723,-6.008 17.628,-11.875 26.928,-16.956l12.344,-6.112c2.494,-1.159 5.453,-2.136 7.489,-4.014l0.002,-5.028Z" style="fill:#d9e5ea;fill-rule:nonzero;"/><path d="M896.793,563.191l34.73,-0.044c-33.759,44.804 -50.038,95.74 -54.659,151.248l-15.633,-24.341c2.896,-9.543 2.191,-21.421 3.374,-31.476c2.965,-25.211 9.082,-48.859 19.601,-72.021c3.648,-8.035 7.41,-16.194 12.587,-23.366Z" style="fill:#419d36;fill-rule:nonzero;"/><path d="M578.162,563.345c3.854,-0.583 8.139,-0.227 12.043,-0.24l21.531,-0.056c23.094,34.709 36.693,70.971 45.775,111.435l-25.92,42.333c-2.453,-56.672 -18.627,-108.21 -53.429,-153.472Z" style="fill:#419d36;fill-rule:nonzero;"/><path d="M307.169,438.694c18.233,-3.075 36.49,-5.72 55.007,-6.133c32.495,-0.724 66.006,4.867 96.756,15.158c11.433,3.826 23.03,8.189 33.683,13.871c0.922,1.902 0.492,4.48 0.412,6.553l-0.275,22.811c-59.301,-31.38 -129.42,-39.571 -194.174,-21.837l8.591,-30.423Z" style="fill:#5eb838;fill-rule:nonzero;"/><path d="M1014.52,457.909c11.934,-3.743 23.296,-9.938 35.365,-13.773c47.474,-15.091 99.414,-19.365 148.707,-11.436l9.601,34.29c-47.013,-10.411 -95.797,-11.272 -142.292,2.356c-18.116,5.311 -35.186,12.823 -52.054,21.213l0.673,-32.65Z" style="fill:#7ac92c;fill-rule:nonzero;"/><path d="M611.736,563.049l114.356,-0.154l-68.581,111.589c-9.082,-40.464 -22.681,-76.726 -45.775,-111.435Z" style="fill:#5eb838;fill-rule:nonzero;"/><path d="M1147.83,489.047c13.363,0.695 26.515,1.745 39.646,4.468c30.775,6.378 60.123,19.938 85.798,37.883c-2.677,4.993 -6.317,9.163 -9.768,13.623l-12.047,16.083c-2.809,3.721 -6.781,8.052 -8.097,12.538c-20.476,-13.004 -42.523,-23.809 -66.45,-28.663c-9.812,-1.99 -19.757,-2.584 -29.724,-3.24l-0.144,-37.707c-0.011,-3.995 -0.995,-11.49 0.786,-14.985Z" style="fill:#fcd10c;fill-rule:nonzero;"/><path d="M861.231,690.054l-80.006,-127.17l115.568,0.307c-5.177,7.172 -8.939,15.331 -12.587,23.366c-10.519,23.162 -16.636,46.81 -19.601,72.021c-1.183,10.055 -0.478,21.933 -3.374,31.476Z" style="fill:#5eb838;fill-rule:nonzero;"/><path d="M537.088,558.616c25.321,27.393 45.667,59.399 56.193,95.466c5.67,19.426 8.196,38.572 10.176,58.628l-42.902,0.242c-3.642,0.014 -11.125,-0.974 -14.192,0.675c-2.996,-39.042 -16.342,-73.534 -40.839,-103.898c2.96,-6.659 7.673,-13.23 11.512,-19.454l20.052,-31.659Z" style="fill:#37b9dd;fill-rule:nonzero;"/><path d="M324.231,393.397l183.898,-0.029c-6.19,17.353 -11.301,35.035 -13.388,53.39c-0.558,4.924 -1.421,10.695 -1.053,15.627l-0.661,5.758c0.08,-2.073 0.51,-4.651 -0.412,-6.553c-10.653,-5.682 -22.25,-10.045 -33.683,-13.871c-30.75,-10.291 -64.261,-15.882 -96.756,-15.158c-18.517,0.413 -36.774,3.058 -55.007,6.133l17.062,-45.297Z" style="fill:#a5e65a;fill-rule:nonzero;"/><path d="M998.525,387.64l182.642,0.59l17.423,44.47c-49.293,-7.929 -101.233,-3.655 -148.707,11.436c-12.069,3.835 -23.431,10.03 -35.365,13.773l-0.654,-3.561c0.087,-5.917 -1.162,-12.438 -2.113,-18.3c-2.719,-16.735 -7.358,-32.548 -13.226,-48.408Z" style="fill:#a5e65a;fill-rule:nonzero;"/><path d="M521.601,954.723l170.222,0.026l75.154,0.119l-45.077,62.778c-58.865,-3.494 -117.299,-20.357 -170.001,-46.516c-10.181,-5.055 -20.808,-10.149 -30.298,-16.407Z" style="fill:#a5e65a;fill-rule:nonzero;"/><path d="M374.453,544.583c-1.917,-0.272 -3.659,-0.359 -5.27,-1.54l-0.241,-54.771l11.131,0.16c59.707,2.764 114.502,28.738 157.015,70.184l-20.052,31.659c-3.839,6.224 -8.552,12.795 -11.512,19.454c-8.76,-9.704 -17.546,-19.014 -27.832,-27.158c-29.272,-23.177 -66.195,-35.831 -103.239,-37.988Z" style="fill:#39c8e6;fill-rule:nonzero;"/><path d="M1273.27,531.398c51.87,37.284 86.682,91.582 96.849,154.899l2.92,31.616l-53.109,0.076l-2.511,-23.721c-6.693,-38.526 -24.083,-71.488 -50.974,-99.66c-7.224,-7.573 -14.525,-14.907 -23.087,-20.966c1.316,-4.486 5.288,-8.817 8.097,-12.538l12.047,-16.083c3.451,-4.46 7.091,-8.63 9.768,-13.623Z" style="fill:#f6bd3d;fill-rule:nonzero;"/><path d="M883.073,233.096c-4.289,-2.143 -6.465,-9.216 -21.871,-22.441c-22.575,-19.378 -61.213,-25.927 -61.213,-25.927l-43.755,-70.433c42.257,0.217 85.227,5.456 126.055,16.539l0.051,94.37c-0,0 1.785,5.337 0.733,7.892Z" style="fill:#5eb838;fill-rule:nonzero;"/><path d="M625.659,131.635c42.044,-10.508 84.184,-17.306 127.636,-17.277l-44.947,70.134c0,0 -38.144,3.231 -59.305,21.819c-17.265,15.165 -18.544,14.609 -22.816,28.702l-0.568,-103.378Z" style="fill:#5eb838;fill-rule:nonzero;"/><path d="M767.223,954.392l222.23,0.293c-56.605,33.907 -120.45,54.411 -185.953,61.518c-26.902,2.92 -54.615,3.96 -81.6,1.443l45.077,-62.778l-75.154,-0.119c7.753,-1.051 16.758,-0.346 24.618,-0.359l50.782,0.002Z" style="fill:#5eb838;fill-rule:nonzero;"/><path d="M1100.72,265.32c33.463,36.859 59.724,77.72 80.444,122.91l-182.642,-0.59l-4.172,-9.933c12.005,-10.4 22.475,-23.969 33.476,-35.524l72.894,-76.863Z" style="fill:#5eb838;fill-rule:nonzero;"/><path d="M408.797,264.567l107.518,109.168l-8.186,19.633l-183.898,0.029c20.419,-47.153 50.055,-90.904 84.566,-128.83Z" style="fill:#5eb838;fill-rule:nonzero;"/><path d="M881.36,799.055c17.901,28.984 33.397,59.389 54.058,86.614c17.913,23.604 42.078,45.049 67.045,60.849c-1.924,2.497 -9.793,7.192 -13.01,8.167l-222.23,-0.293l31.489,-43.229l-76.494,-0.05c4.128,-1.927 13.881,-0.611 18.9,-0.618l58.22,-0.029c2.346,-2.139 4.246,-5.502 6.102,-8.102l10.973,-15.242l35.902,-49.618l0.431,-0.123l28.614,-38.326Z" style="fill:#419d36;fill-rule:nonzero;"/><path d="M852.315,837.504l0.431,-0.123l27.69,43.826c6.271,9.611 13.804,19.449 18.961,29.657l-100.685,0.299l-76.494,-0.05c4.128,-1.927 13.881,-0.611 18.9,-0.618l58.22,-0.029c2.346,-2.139 4.246,-5.502 6.102,-8.102l10.973,-15.242l35.902,-49.618Z" style="fill:#cb9135;fill-rule:nonzero;"/><path d="M1319.93,717.989l53.109,-0.076c-0.066,19.874 -1.471,39.736 -5.874,59.153c-9.613,42.42 -33.231,82.759 -63.95,113.288c-43.01,42.76 -98.01,63.364 -158.033,65.059l-0.011,-52.701c32.677,-0.298 66.406,-10.9 93.275,-29.597c8.927,-3.607 18.551,-13.766 25.587,-20.394c1.549,-0.622 2.511,-1.773 3.65,-2.925c24.536,-24.675 42.136,-56.858 48.928,-91.028c2.677,-13.502 3.363,-27.054 3.319,-40.779Z" style="fill:#cb9135;fill-rule:nonzero;"/><path d="M135.051,717.552l53.81,0.025c0.103,3.507 -0.126,7.506 0.679,10.912c1.2,32.599 12.912,65.766 31.25,92.648c-0,0 7.736,8.412 10.295,11.857c6.632,8.927 14.717,16.952 22.98,24.363c3.949,3.541 8.556,7.843 13.206,10.398l2.54,1.507c25.801,20.341 64.951,31.606 97.56,31.759l0.225,56.11c-62.449,-1.88 -116.328,-24.225 -161.194,-67.633c-47.15,-45.617 -70.193,-107.034 -71.351,-171.946Z" style="fill:#39c8e6;fill-rule:nonzero;"/><path d="M909.11,717.978c1.284,-27.346 5.994,-54.401 15.661,-80.096c12.246,-32.556 33.956,-64.454 59.138,-88.333c43.229,-40.993 104.708,-62.202 163.917,-60.502c-1.781,3.495 -0.797,10.99 -0.786,14.985l0.144,37.707c-19.37,0.063 -39.348,2.142 -57.897,7.972c-28.616,8.994 -53.849,25.796 -74.854,46.948c-32.606,32.835 -48.071,75.742 -50.917,121.259c-6.419,-0.693 -13.366,-0.182 -19.843,-0.161l-34.563,0.221Z" style="fill:#fce1a4;fill-rule:nonzero;"/><path d="M909.11,717.978l34.563,-0.221c6.477,-0.021 13.424,-0.532 19.843,0.161c0.036,12.073 0.472,23.985 2.568,35.902c6.589,37.45 25.241,72.101 52.151,98.797c7.158,7.1 14.807,12.547 22.716,18.653l3.06,1.655c30.328,19.966 65.108,29.167 101.16,29.787l0.011,52.701c-61.55,-0.049 -119.247,-22.619 -163.96,-65.266c-31.522,-30.064 -55.354,-70.622 -65.441,-113.082c-4.65,-19.578 -6.169,-39.03 -6.671,-59.087Z" style="fill:#fcd10c;fill-rule:nonzero;"/><path d="M135.051,717.552l2.725,-33.69c8.739,-59.29 41.848,-114.211 90.211,-149.705c36.946,-27.116 82.893,-43.765 128.694,-45.835c7.752,-0.35 15.693,-1.059 23.392,0.11l-11.131,-0.16l0.241,54.771c1.611,1.181 3.353,1.268 5.27,1.54c-50.153,-0.612 -96.554,16.336 -132.756,51.586c-31.095,30.274 -51.496,73.699 -52.08,117.465l-0.077,14.855c-0.805,-3.406 -0.576,-7.405 -0.679,-10.912l-53.81,-0.025Z" style="fill:#96dfea;fill-rule:nonzero;"/><path d="M408.797,264.567c49.036,-51.845 106.343,-92.298 173.008,-118.264l43.854,-14.668l0.438,95.325c-48.618,28.409 -85.657,95.698 -109.782,146.775l-107.518,-109.168Z" style="fill:#a5e65a;fill-rule:nonzero;"/><path d="M882.289,130.834c14.159,4.207 28.269,8.398 42.029,13.813c51.636,20.317 101.389,50.78 142.939,87.456c11.694,10.322 22.674,21.953 33.466,33.217l-72.894,76.863c-11.001,11.555 -21.471,25.124 -33.476,35.524c-7.992,-17.554 -17.412,-35.304 -28.706,-50.975c-5.231,-7.26 -11.386,-13.877 -17.438,-20.448c-19.82,-21.517 -65.869,-81.08 -65.869,-81.08l-0.051,-94.37Z" style="fill:#a5e65a;fill-rule:nonzero;"/><path d="M761.217,126.06c13.363,0.696 26.516,1.746 39.647,4.468c30.775,6.379 60.122,19.938 85.798,37.883c-2.677,4.994 -6.317,9.163 -9.768,13.623l-12.047,16.084c-2.81,3.721 -6.781,8.052 -8.097,12.537c-20.476,-13.003 -42.523,-23.809 -66.45,-28.663c-9.812,-1.99 -19.757,-2.584 -29.724,-3.24l-0.144,-37.706c-0.011,-3.996 -0.996,-11.49 0.785,-14.986Z" style="fill:#fcd10c;fill-rule:nonzero;"/><path d="M886.662,168.411c51.87,37.284 86.682,91.582 96.848,154.9l2.921,31.615l-53.109,0.076l-2.512,-23.72c-6.692,-38.526 -24.082,-71.489 -50.974,-99.661c-7.223,-7.573 -14.524,-14.907 -23.086,-20.966c1.316,-4.485 5.287,-8.816 8.097,-12.537l12.047,-16.084c3.451,-4.46 7.091,-8.629 9.768,-13.623Z" style="fill:#f6bd3d;fill-rule:nonzero;"/><path d="M933.322,355.002l53.109,-0.076c-0.067,19.874 -1.472,39.736 -5.874,59.154c-9.613,42.419 -33.231,82.759 -63.95,113.288c-43.01,42.759 -98.01,63.363 -158.033,65.058l-0.012,-52.701c32.678,-0.297 66.406,-10.899 93.276,-29.596c8.927,-3.608 18.551,-13.766 25.587,-20.395c1.548,-0.621 2.511,-1.773 3.65,-2.924c24.536,-24.676 42.136,-56.858 48.928,-91.028c2.677,-13.503 3.363,-27.055 3.319,-40.78Z" style="fill:#cb9135;fill-rule:nonzero;"/><path d="M522.502,354.991c1.284,-27.345 5.994,-54.401 15.66,-80.096c12.247,-32.556 33.957,-64.453 59.138,-88.333c43.23,-40.993 104.709,-62.201 163.917,-60.502c-1.781,3.496 -0.796,10.99 -0.785,14.986l0.144,37.706c-19.37,0.063 -39.348,2.143 -57.897,7.973c-28.617,8.993 -53.849,25.795 -74.854,46.947c-32.607,32.836 -48.071,75.742 -50.918,121.26c-6.418,-0.694 -13.365,-0.183 -19.842,-0.162l-34.563,0.221Z" style="fill:#96dfea;fill-rule:nonzero;"/><path d="M522.502,354.991l34.563,-0.221c6.477,-0.021 13.424,-0.532 19.842,0.162c0.037,12.073 0.473,23.985 2.569,35.902c6.589,37.449 25.24,72.1 52.151,98.796c7.157,7.1 14.807,12.547 22.716,18.653l3.06,1.655c30.328,19.966 65.108,29.168 101.159,29.787l0.012,52.701c-61.55,-0.049 -119.248,-22.619 -163.961,-65.265c-31.521,-30.065 -55.353,-70.623 -65.44,-113.082c-4.65,-19.578 -6.169,-39.031 -6.671,-59.088Z" style="fill:#39c8e6;fill-rule:nonzero;"/><path d="M546.363,713.627c3.067,-1.649 10.55,-0.661 14.192,-0.675l42.902,-0.242c0.128,14.895 -0.09,29.664 -2.344,44.431c-7.266,47.607 -30.482,94.446 -64.274,128.746c-44.559,45.231 -104.58,70.891 -168.06,71.245l-1.183,-0.001l-0.225,-56.11c-32.609,-0.153 -71.759,-11.418 -97.56,-31.759l-2.54,-1.507c-4.65,-2.555 -9.257,-6.857 -13.206,-10.398c-8.263,-7.411 -16.348,-15.436 -22.98,-24.363c8.921,-3.947 18.22,-7.822 26.222,-13.458c3.45,1.921 8.52,2.077 12.372,1.569l1.163,-0.885c2.158,-2.959 5.394,-5.362 8.103,-7.819c3.786,-3.433 7.327,-6.954 10.737,-10.756c6.202,1.075 16.175,-0.67 21.789,-3.484l5.232,-0.84c0.724,-0.359 1.192,-0.484 2.004,-0.452c10.076,0.392 24.071,-0.432 32.314,-6.969c3.383,-1.274 6.475,-2.764 9.648,-4.492c7.448,-0.34 15.13,-2.991 22.267,-5.099l1.599,1.436c1.76,-0.515 3.242,-2.017 4.673,-3.168c0.57,-2.658 4.774,-4.015 7.009,-5.105c9.56,-4.66 16.166,-10.356 23.061,-18.366l1.288,0.891l2.333,-1.627l-0.805,-0.354l33.079,-35.683l63.122,-0.261l18.52,-0.065c2.897,-0.015 6.638,0.469 9.306,-0.684l0.242,-3.696Z" style="fill:#419ac3;fill-rule:nonzero;"/><path d="M546.121,717.323c0.682,5.764 0.127,11.885 -0.158,17.692c-1.697,34.638 -15.482,70.299 -36.932,97.566c-7.117,9.049 -15.559,16.917 -23.742,25.018c-7.228,7.156 -15.413,15.337 -16.942,15.326c-9.079,-0.066 -38.029,-12.978 -45.949,-17.626c-9.087,-5.336 0.218,-21.938 -3.525,-31.154c-2.53,-6.231 -5.709,-12.916 -7.138,-19.491l-0.217,-1.022c-2.391,-10.496 12.573,-42.302 17.264,-53.208l-5.883,3.946l-0.805,-0.354l33.079,-35.683l63.122,-0.261l18.52,-0.065c2.897,-0.015 6.638,0.469 9.306,-0.684Z" style="fill:#d9e5ea;fill-rule:nonzero;"/><path d="M231.085,832.994c8.921,-3.947 18.22,-7.822 26.222,-13.458c3.45,1.921 8.52,2.077 12.372,1.569l1.163,-0.885l26.258,37.651l-30.373,0.321c-1.221,1.919 -1.11,3.333 -0.687,5.583l1.231,3.98c-4.65,-2.555 -9.257,-6.857 -13.206,-10.398c-8.263,-7.411 -16.348,-15.436 -22.98,-24.363Z" style="fill:#d9e5ea;fill-rule:nonzero;"/><path d="M389.208,778.577c-1.194,7.133 -3.351,15.298 -2.445,22.524c0.88,7.009 6.645,14.868 10.483,20.664l16.734,24.879c2.172,3.139 6.537,7.796 7.434,11.347l-33.336,-0.174c-4.39,-0.032 -10.905,0.729 -14.942,-0.822c-0.378,-0.569 -0.944,-1.051 -1.131,-1.707c-1.363,-4.786 3.236,-29.431 4.071,-36.159c1.329,-10.714 1.73,-21.887 3.758,-32.47c0.485,-2.533 1.131,-2.59 3.232,-3.963l1.469,-0.951c1.76,-0.515 3.242,-2.017 4.673,-3.168Z" style="fill:#d9e5ea;fill-rule:nonzero;"/><path d="M316.703,797.321c0.724,-0.359 1.192,-0.484 2.004,-0.452c10.076,0.392 24.071,-0.432 32.314,-6.969c5.437,16.067 6.315,34.558 7.27,51.404c0.233,4.095 1.333,10.358 -0.22,14.135c-0.562,0.508 -1.428,1.545 -2.066,1.866c-2.536,1.273 -7.516,0.834 -10.324,0.843c-7.997,0.025 -16.234,0.321 -24.208,-0.219c-4.641,-0.315 -9.559,-2.849 -12.51,-6.455c-4.981,-6.091 -9.64,-16.149 -11.85,-23.765c8.215,-8.591 16.469,-18.319 20.518,-29.703l-0.928,-0.685Z" style="fill:#d9e5ea;fill-rule:nonzero;"/><path d="M468.682,869.088l1.171,0.779c-6.506,5.473 -14.722,9.523 -22.397,13.126c-24.857,11.669 -52.527,18.587 -80.085,18.028c-32.609,-0.153 -71.759,-11.418 -97.56,-31.759l198.871,-0.174Z" style="fill:#d9e5ea;fill-rule:nonzero;"/><path d="M521.601,954.723c-3.548,-1.607 -6.87,-3.829 -10.196,-5.858c14.422,-9.88 29.064,-20.699 40.321,-34.224c5.434,-6.529 9.858,-14.186 14.608,-21.228l41.78,-65.049l95.11,-151.815l50.54,-80.73l127.596,203.236l-28.614,38.326l-0.431,0.123l-35.902,49.618l-10.973,15.242c-1.856,2.6 -3.756,5.963 -6.102,8.102l-58.22,0.029c-5.019,0.007 -14.772,-1.309 -18.9,0.618l76.494,0.05l-31.489,43.229l-50.782,-0.002c-7.86,0.013 -16.865,-0.692 -24.618,0.359l-170.222,-0.026Z" style="fill:#419d36;fill-rule:nonzero;"/><path d="M754.052,681.148c3.759,4.762 6.851,10.587 10.153,15.727l19.662,30.512l55.264,87.23l-83.221,-0.007l-85.212,-0.408l83.354,-133.054Z" style="fill:url(#_Linear1);fill-rule:nonzero;"/><path d="M722.218,911.113l-113.119,0.134l52.982,-83.38l184.515,-0.014l5.719,9.651l-35.902,49.618l-10.973,15.242c-1.856,2.6 -3.756,5.963 -6.102,8.102l-58.22,0.029c-5.019,0.007 -14.772,-1.309 -18.9,0.618Z" style="fill:#f6bd3d;fill-rule:nonzero;"/><path d="M1147.18,541.739c9.967,0.656 19.912,1.25 29.724,3.24c23.927,4.854 45.974,15.659 66.45,28.663c8.562,6.059 15.863,13.393 23.087,20.966c26.891,28.172 44.281,61.134 50.974,99.66l2.511,23.721c0.044,13.725 -0.642,27.277 -3.319,40.779c-6.792,34.17 -24.392,66.353 -48.928,91.028c-1.139,1.152 -2.101,2.303 -3.65,2.925c-7.036,6.628 -16.66,16.787 -25.587,20.394c-26.869,18.697 -60.598,29.299 -93.275,29.597c-36.052,-0.62 -70.832,-9.821 -101.16,-29.787l-3.06,-1.655c-7.909,-6.106 -15.558,-11.553 -22.716,-18.653c-26.91,-26.696 -45.562,-61.347 -52.151,-98.797c-2.096,-11.917 -2.532,-23.829 -2.568,-35.902c2.846,-45.517 18.311,-88.424 50.917,-121.259c21.005,-21.152 46.238,-37.954 74.854,-46.948c18.549,-5.83 38.527,-7.909 57.897,-7.972Z" style="fill:#fefefe;fill-rule:nonzero;"/><path d="M1084.05,852.438c-12.838,-12.184 -21.543,-28.495 -25.304,-45.711c-5.729,-26.228 0.91,-54.181 16.801,-75.695c7.355,-9.957 15.98,-18.74 22.714,-29.185c3.902,-6.052 8.976,-14.112 7.107,-21.662c-4.47,-18.008 -33.061,-3.708 -44.885,-11.637c-4.453,-2.986 -9.022,-10.152 -9.839,-15.459c-0.305,-1.991 -0.004,-4.677 1.873,-5.888c2.499,-1.61 6.37,-2.646 9.136,-3.976c10.454,-5.028 18.488,-10.91 25.382,-20.234c6.514,-8.809 11.989,-13.879 23.122,-15.424c14.447,-2.007 27.113,2.978 38.386,11.652l0.531,25.499c-0.045,0.941 -0.034,0.59 0.155,1.648c-4.824,8.182 -4.702,20.111 -6.383,29.231c-1.018,5.487 -3.087,11.155 -5.531,16.152c-7.722,15.749 -19.945,25.558 -30.731,38.715c-18.125,22.081 -25.463,54.811 -18.251,82.568c3.79,14.588 10.782,28.576 21.426,39.368l-25.709,0.038Z" style="fill:#a5e65a;fill-rule:nonzero;"/><path d="M1240.73,752.249c11.925,18.315 17.357,38.703 12.932,60.393c-3.175,15.581 -11.062,28.334 -21.14,40.285l31.516,-0.206c-7.036,6.628 -16.66,16.787 -25.587,20.394c-26.869,18.697 -60.598,29.299 -93.275,29.597c-36.052,-0.62 -70.832,-9.821 -101.16,-29.787l-3.06,-1.655l-0.038,-1.827c-0.058,-5.265 1.122,-8.887 4.899,-12.651c5.519,-5.503 13.321,-4.4 20.453,-4.403l17.787,0.049l25.709,-0.038c4.69,0.06 10.011,-0.382 14.591,0.538c2.201,-3.529 7.124,-4.743 10.808,-6.442c4.557,-2.105 8.938,-4.409 13.075,-7.274c4.358,2.88 9.336,5.385 14.27,7.108c11.936,4.173 25.542,3.098 36.859,-2.391c12.799,-6.208 22.666,-17.611 27.224,-31.047c5.144,-15.172 2.81,-27.605 -4.149,-41.661l18.286,-18.982Z" style="fill:#5eb838;fill-rule:nonzero;"/><path d="M1044.01,872.925l194.435,0.19c-26.869,18.697 -60.598,29.299 -93.275,29.597c-36.052,-0.62 -70.832,-9.821 -101.16,-29.787Z" style="fill:#d9e5ea;fill-rule:nonzero;"/><path d="M1148.55,619.219c16.294,14.767 25.299,32.251 26.339,54.467c0.807,17.251 -3.596,31.328 -11.571,46.442c20.619,-3.859 40.166,0.923 57.434,12.631c7.777,5.272 14.392,11.956 19.978,19.49l-18.286,18.982c6.959,14.056 9.293,26.489 4.149,41.661c-4.558,13.436 -14.425,24.839 -27.224,31.047c-11.317,5.489 -24.923,6.564 -36.859,2.391c-4.934,-1.723 -9.912,-4.228 -14.27,-7.108c-4.137,2.865 -8.518,5.169 -13.075,7.274c-3.684,1.699 -8.607,2.913 -10.808,6.442c-4.58,-0.92 -9.901,-0.478 -14.591,-0.538c-10.644,-10.792 -17.636,-24.78 -21.426,-39.368c-7.212,-27.757 0.126,-60.487 18.251,-82.568c10.786,-13.157 23.009,-22.966 30.731,-38.715c2.444,-4.997 4.513,-10.665 5.531,-16.152c1.681,-9.12 1.559,-21.049 6.383,-29.231c-0.189,-1.058 -0.2,-0.707 -0.155,-1.648l-0.531,-25.499Z" style="fill:#7ac92c;fill-rule:nonzero;"/><path d="M1109.76,852.4c-10.644,-10.792 -17.636,-24.78 -21.426,-39.368c-7.212,-27.757 0.126,-60.487 18.251,-82.568c10.786,-13.157 23.009,-22.966 30.731,-38.715c2.444,-4.997 4.513,-10.665 5.531,-16.152c1.681,-9.12 1.559,-21.049 6.383,-29.231c0.907,6.607 2.345,13.529 2.566,20.18c0.564,16.616 -5.73,32.525 -15.73,45.656c-5.598,7.36 -12.6,13.466 -18.629,20.455c-16.379,18.999 -24.811,43.17 -21.6,68.237c1.858,14.496 9.986,31.084 19.465,42.143c2.091,2.442 8.208,7.104 9.049,9.901c-4.58,-0.92 -9.901,-0.478 -14.591,-0.538Z" style="fill:#fefefe;fill-rule:nonzero;"/><path d="M1148.24,839.222c-4.591,-3.77 -9.06,-7.793 -12.345,-12.788c-7.821,-11.873 -10.078,-26.73 -7.18,-40.553c2.799,-13.371 11.173,-24.924 22.578,-32.331c10.354,-6.729 24.613,-9.546 36.782,-6.946c15.387,3.29 25.852,11.577 34.369,24.627c6.959,14.056 9.293,26.489 4.149,41.661c-4.558,13.436 -14.425,24.839 -27.224,31.047c-11.317,5.489 -24.923,6.564 -36.859,2.391c-4.934,-1.723 -9.912,-4.228 -14.27,-7.108Z" style="fill:#fefefe;fill-rule:nonzero;"/><path d="M1215.22,781.297c4.624,11.822 4.58,21.113 -0.62,32.826c-4.447,10.029 -12.732,17.444 -23.02,21.229c-10.542,3.881 -21.206,3.172 -31.294,-1.637l-4.171,-2.323c14.956,-9.416 28.175,-19.741 41.328,-31.547c6.571,-5.887 12.899,-11.123 17.777,-18.548Z" style="fill:#5eb838;fill-rule:nonzero;"/><path d="M1156.11,831.392c-6.073,-3.824 -10.653,-9.219 -13.861,-15.595c-4.69,-9.327 -5.863,-21.418 -2.422,-31.346c3.473,-10.033 10.73,-18.75 20.365,-23.35c10.078,-4.813 21.162,-6.376 31.781,-2.347c11.018,4.184 18.341,12.035 23.242,22.543c-4.878,7.425 -11.206,12.661 -17.777,18.548c-13.153,11.806 -26.372,22.131 -41.328,31.547Z" style="fill:#7ac92c;fill-rule:nonzero;"/><path d="M421.269,617.906c1.346,1.53 2.676,3.224 4.052,5.085c6.894,9.324 14.929,15.206 25.382,20.234c2.767,1.33 6.638,2.366 9.137,3.976c1.877,1.211 2.178,3.897 1.872,5.888c-0.816,5.307 -5.386,12.473 -9.838,15.459c-11.825,7.929 -40.416,-6.371 -44.886,11.637c-1.868,7.55 3.206,15.61 7.108,21.662c6.733,10.445 15.358,19.228 22.713,29.185c15.891,21.514 22.531,49.467 16.801,75.695c-3.761,17.216 -12.465,33.527 -25.303,45.711l-25.709,-0.038c10.644,-10.792 17.636,-24.78 21.426,-39.368c7.211,-27.757 -0.126,-60.487 -18.252,-82.568c-10.785,-13.157 -23.009,-22.966 -30.73,-38.715c-2.445,-4.997 -4.513,-10.665 -5.531,-16.152c-1.682,-9.12 -1.56,-21.049 -6.383,-29.231c0.188,-1.058 0.199,-0.707 0.155,-1.648l0.531,-25.499c11.272,-8.674 23.938,-13.659 38.385,-11.652c2.329,0.323 4.409,0.801 6.304,1.434l24.088,-19.452l-11.322,28.357Z" style="fill:#a5e65a;"/><path d="M1105.65,625.034c3.976,-1.065 12.994,2.409 12.994,2.409c-0,-0 -6.002,7.782 -9.978,8.847c-3.976,1.066 -13.878,-2.455 -13.878,-2.455c-0,-0 6.886,-7.735 10.862,-8.801Z" style="fill:#fff;"/><path d="M408.344,623.94c-0.69,-0.156 -1.295,-0.294 -2.007,-0.26c-2.312,0.111 -4.79,1.236 -6.262,3.06c-1.526,1.898 -1.039,3.823 -0.907,6.055c1.25,2.349 2.279,3.368 4.591,4.668c1.582,0.132 3.374,0.412 4.907,-0.042c1.891,-0.558 3.268,-2.028 4.109,-3.803c0.771,-1.629 0.794,-3.566 0.173,-5.251c-0.85,-2.304 -2.506,-3.375 -4.604,-4.427Z" style="fill:#fefefe;fill-rule:nonzero;"/><path d="M271.633,752.249c-11.925,18.315 -17.356,38.703 -12.931,60.393c3.175,15.581 11.062,28.334 21.139,40.285l-31.515,-0.206c7.035,6.628 16.659,16.787 25.586,20.394c26.87,18.697 60.598,29.299 93.276,29.597c36.051,-0.62 70.832,-9.821 101.159,-29.787l3.06,-1.655l0.039,-1.827c0.057,-5.265 -1.123,-8.887 -4.9,-12.651c-5.518,-5.503 -13.321,-4.4 -20.452,-4.403l-17.787,0.049l-25.709,-0.038c-4.691,0.06 -10.012,-0.382 -14.591,0.538c-2.202,-3.529 -7.124,-4.743 -10.808,-6.442c-4.558,-2.105 -8.938,-4.409 -13.075,-7.274c-4.359,2.88 -9.337,5.385 -14.271,7.108c-11.936,4.173 -25.542,3.098 -36.858,-2.391c-12.799,-6.208 -22.667,-17.611 -27.224,-31.047c-5.144,-15.172 -2.81,-27.605 4.148,-41.661l-18.286,-18.982Z" style="fill:#5eb838;fill-rule:nonzero;"/><path d="M468.347,872.925l-194.435,0.19c26.87,18.697 60.598,29.299 93.276,29.597c36.051,-0.62 70.832,-9.821 101.159,-29.787Z" style="fill:#d9e5ea;fill-rule:nonzero;"/><path d="M277.348,745.262c-1.828,-2.254 -5.369,-4.995 -11.539,-4.309c-10.037,1.116 22.688,-12.646 27.175,-9.107c1.417,-0.924 2.848,-1.801 4.293,-2.632c-0.677,-1.468 -1.786,-3.08 -3.603,-4.447c-3.237,-2.434 -10.326,-3.491 -14.884,-3.918c-11.16,-1.047 37.37,-8.644 41.632,-3.526c0.721,0.866 0.566,1.903 -0.19,3.03c9.269,-1.939 18.918,-2.077 28.814,-0.225c-7.976,-15.114 -12.379,-29.191 -11.571,-46.442c1.04,-22.216 10.044,-39.7 26.339,-54.467l-0.531,25.499c0.044,0.941 0.033,0.59 -0.155,1.648c4.823,8.182 4.701,20.111 6.383,29.231c1.018,5.487 3.086,11.155 5.531,16.152c7.721,15.749 19.945,25.558 30.73,38.715c18.126,22.081 25.463,54.811 18.252,82.568c-3.79,14.588 -10.782,28.576 -21.426,39.368c-4.691,0.06 -10.012,-0.382 -14.591,0.538c-2.202,-3.529 -7.124,-4.743 -10.808,-6.442c-4.558,-2.105 -8.938,-4.409 -13.075,-7.274c-4.359,2.88 -9.337,5.385 -14.271,7.108c-11.936,4.173 -25.542,3.098 -36.858,-2.391c-12.799,-6.208 -22.667,-17.611 -27.224,-31.047c-5.144,-15.172 -2.81,-27.605 4.148,-41.661l-18.286,-18.982c1.797,-2.423 3.7,-4.758 5.715,-6.987Z" style="fill:#7ac92c;"/><path d="M402.598,852.4c10.644,-10.792 17.636,-24.78 21.426,-39.368c7.211,-27.757 -0.126,-60.487 -18.252,-82.568c-10.785,-13.157 -23.009,-22.966 -30.73,-38.715c-2.445,-4.997 -4.513,-10.665 -5.531,-16.152c-1.682,-9.12 -1.56,-21.049 -6.383,-29.231c-0.907,6.607 -2.345,13.529 -2.566,20.18c-0.565,16.616 5.73,32.525 15.73,45.656c5.597,7.36 12.6,13.466 18.628,20.455c16.379,18.999 24.812,43.17 21.6,68.237c-1.857,14.496 -9.985,31.084 -19.465,42.143c-2.09,2.442 -8.208,7.104 -9.048,9.901c4.579,-0.92 9.9,-0.478 14.591,-0.538Z" style="fill:#fefefe;fill-rule:nonzero;"/><path d="M364.124,839.222c4.59,-3.77 9.059,-7.793 12.345,-12.788c7.821,-11.873 10.077,-26.73 7.179,-40.553c-2.799,-13.371 -11.173,-24.924 -22.578,-32.331c-10.354,-6.729 -24.613,-9.546 -36.781,-6.946c-15.387,3.29 -25.852,11.577 -34.37,24.627c-6.958,14.056 -9.292,26.489 -4.148,41.661c4.557,13.436 14.425,24.839 27.224,31.047c11.316,5.489 24.922,6.564 36.858,2.391c4.934,-1.723 9.912,-4.228 14.271,-7.108Z" style="fill:#fefefe;fill-rule:nonzero;"/><path d="M297.143,781.297c-4.624,11.822 -4.58,21.113 0.619,32.826c4.447,10.029 12.733,17.444 23.02,21.229c10.542,3.881 21.206,3.172 31.295,-1.637l4.17,-2.323c-14.956,-9.416 -28.175,-19.741 -41.328,-31.547c-6.571,-5.887 -12.898,-11.123 -17.776,-18.548Z" style="fill:#5eb838;fill-rule:nonzero;"/><path d="M356.247,831.392c6.073,-3.824 10.653,-9.219 13.861,-15.595c4.691,-9.327 5.863,-21.418 2.423,-31.346c-3.474,-10.033 -10.73,-18.75 -20.366,-23.35c-10.077,-4.813 -21.161,-6.376 -31.781,-2.347c-11.018,4.184 -18.341,12.035 -23.241,22.543c4.878,7.425 11.205,12.661 17.776,18.548c13.153,11.806 26.372,22.131 41.328,31.547Z" style="fill:#7ac92c;fill-rule:nonzero;"/><g><path d="M1226.62,767.487c-3.081,4.173 -20.707,-26.408 -52.472,-46.103c-0,-0 12.052,-32.183 10.276,-48.667c-1.831,-16.992 -21.261,-53.282 -21.261,-53.282c0,0 59.029,-19.732 88.853,-18.338c29.825,1.395 90.094,26.705 90.094,26.705c0,-0 -28.878,-2.874 -42.096,1.877c-13.656,4.908 -33.428,15.304 -39.839,27.572c-6.41,12.268 1.373,46.037 1.373,46.037c0,-0 -20.83,7.875 -23.762,17.204c-3.007,9.563 1.551,31.757 1.551,31.757c0,0 -9.637,11.065 -12.717,15.238Z" style="fill:#7ac92c;"/><path d="M1238.26,747.815c-0,-0 -25.306,-43.319 -33.789,-62.821c-7.689,-17.672 -19.339,-54.486 -19.339,-54.486c0,-0 24.847,18.104 35.903,28.716c12.268,11.774 39.956,44.323 39.956,44.323c0,0 -13.126,6.821 -19.381,11.922c-6.667,5.438 -3.35,32.346 -3.35,32.346Z" style="fill:#a5e65a;"/><path d="M1258.79,696.267c0,-0 -15.386,-23.924 -27.143,-35.558c-11.861,-11.737 -45.53,-36.762 -45.53,-36.762c-0,-0 30.49,-9.438 63.458,-10.639c23.813,-0.868 79.931,13.309 79.931,13.309c0,-0 -26.648,4.907 -39.071,9.242c-10.762,3.755 -24.38,8.486 -28.151,19.242c-3.857,10.999 -3.494,41.166 -3.494,41.166Z" style="fill:#5eb838;"/></g><path d="M616.371,470.07c8.921,-3.946 18.221,-7.822 26.222,-13.458c3.45,1.922 8.52,2.078 12.372,1.57l1.163,-0.885l26.258,37.651l-30.373,0.321c-1.221,1.919 -1.11,3.333 -0.687,5.583l1.232,3.98c-4.651,-2.555 -9.258,-6.857 -13.206,-10.398c-8.264,-7.411 -16.349,-15.436 -22.981,-24.364Z" style="fill:#d9e5ea;fill-rule:nonzero;"/><path d="M774.494,415.654c-1.194,7.133 -3.351,15.298 -2.445,22.523c0.88,7.009 6.645,14.869 10.483,20.664l16.734,24.88c2.172,3.138 6.537,7.796 7.434,11.346l-33.335,-0.173c-4.391,-0.032 -10.905,0.729 -14.943,-0.822c-0.377,-0.57 -0.944,-1.051 -1.131,-1.707c-1.363,-4.787 3.236,-29.432 4.071,-36.16c1.329,-10.713 1.73,-21.886 3.758,-32.469c0.486,-2.533 1.132,-2.59 3.232,-3.964l1.469,-0.95c1.76,-0.516 3.243,-2.018 4.673,-3.168Z" style="fill:#d9e5ea;fill-rule:nonzero;"/><path d="M701.99,434.397c0.723,-0.358 1.191,-0.483 2.003,-0.451c10.076,0.392 24.071,-0.432 32.315,-6.969c5.437,16.067 6.314,34.558 7.27,51.403c0.232,4.095 1.333,10.359 -0.221,14.135c-0.561,0.508 -1.428,1.546 -2.066,1.867c-2.535,1.273 -7.516,0.834 -10.324,0.843c-7.997,0.025 -16.234,0.32 -24.207,-0.219c-4.642,-0.316 -9.56,-2.849 -12.511,-6.455c-4.981,-6.091 -9.64,-16.15 -11.85,-23.765c8.215,-8.592 16.469,-18.32 20.518,-29.704l-0.927,-0.685Z" style="fill:#d9e5ea;fill-rule:nonzero;"/><path d="M853.969,506.165l1.17,0.779c-6.506,5.472 -14.722,9.523 -22.396,13.126c-24.858,11.668 -52.528,18.587 -80.086,18.028c-32.608,-0.154 -71.758,-11.418 -97.56,-31.759l198.872,-0.174Z" style="fill:#d9e5ea;fill-rule:nonzero;"/><path d="M806.555,254.983c1.347,1.529 2.676,3.224 4.052,5.085c6.894,9.324 14.929,15.206 25.382,20.233c2.767,1.331 6.638,2.366 9.137,3.977c1.877,1.21 2.178,3.896 1.872,5.887c-0.816,5.308 -5.386,12.474 -9.838,15.46c-11.824,7.929 -40.416,-6.371 -44.886,11.637c-1.868,7.55 3.206,15.61 7.108,21.662c6.733,10.445 15.358,19.228 22.713,29.185c15.891,21.513 22.531,49.466 16.802,75.695c-3.762,17.215 -12.466,33.527 -25.304,45.71l-25.709,-0.037c10.644,-10.792 17.636,-24.781 21.426,-39.368c7.211,-27.757 -0.126,-60.488 -18.251,-82.569c-10.786,-13.156 -23.01,-22.966 -30.731,-38.715c-2.445,-4.997 -4.513,-10.665 -5.531,-16.152c-1.681,-9.119 -1.56,-21.049 -6.383,-29.23c0.188,-1.059 0.199,-0.707 0.155,-1.648l0.531,-25.5c11.272,-8.673 23.938,-13.658 38.385,-11.651c2.329,0.323 4.41,0.8 6.304,1.434l24.088,-19.452l-11.322,28.357Z" style="fill:#a5e65a;"/><path d="M792.54,262.122c-3.976,-1.065 -12.994,2.409 -12.994,2.409c-0,-0 6.002,7.782 9.977,8.847c3.976,1.066 13.878,-2.455 13.878,-2.455c0,-0 -6.886,-7.735 -10.861,-8.801Z" style="fill:#fff;"/><path d="M656.92,389.326c-11.925,18.314 -17.357,38.703 -12.932,60.392c3.175,15.581 11.062,28.335 21.14,40.285l-31.516,-0.205c7.035,6.628 16.659,16.786 25.586,20.394c26.87,18.697 60.598,29.299 93.276,29.596c36.051,-0.619 70.832,-9.821 101.16,-29.787l3.059,-1.655l0.039,-1.826c0.058,-5.265 -1.123,-8.887 -4.899,-12.652c-5.519,-5.502 -13.321,-4.399 -20.453,-4.402l-17.787,0.048l-25.709,-0.037c-4.691,0.059 -10.011,-0.382 -14.591,0.537c-2.202,-3.528 -7.124,-4.742 -10.808,-6.441c-4.557,-2.105 -8.938,-4.409 -13.075,-7.275c-4.359,2.881 -9.337,5.385 -14.27,7.109c-11.936,4.173 -25.543,3.097 -36.859,-2.392c-12.799,-6.208 -22.667,-17.611 -27.224,-31.047c-5.144,-15.171 -2.81,-27.604 4.148,-41.661l-18.285,-18.981Z" style="fill:#5eb838;fill-rule:nonzero;"/><path d="M853.634,510.001l-194.436,0.191c26.87,18.697 60.598,29.299 93.276,29.596c36.051,-0.619 70.832,-9.821 101.16,-29.787Z" style="fill:#d9e5ea;fill-rule:nonzero;"/><path d="M662.634,382.339c-1.828,-2.255 43.64,-26.036 42.885,-24.909c9.268,-1.939 18.917,-2.077 28.813,-0.225c-7.976,-15.114 -12.378,-29.192 -11.571,-46.442c1.04,-22.216 10.045,-39.701 26.339,-54.468l-0.531,25.5c0.044,0.941 0.033,0.589 -0.155,1.648c4.823,8.181 4.702,20.111 6.383,29.23c1.018,5.487 3.086,11.155 5.531,16.152c7.721,15.749 19.945,25.559 30.731,38.715c18.125,22.081 25.462,54.812 18.251,82.569c-3.79,14.587 -10.782,28.576 -21.426,39.368c-4.691,0.059 -10.011,-0.382 -14.591,0.537c-2.202,-3.528 -7.124,-4.742 -10.808,-6.441c-4.557,-2.105 -8.938,-4.409 -13.075,-7.275c-4.359,2.881 -9.337,5.385 -14.27,7.109c-11.936,4.173 -25.543,3.097 -36.859,-2.392c-12.799,-6.208 -22.667,-17.611 -27.224,-31.047c-5.144,-15.171 -2.81,-27.604 4.148,-41.661l-18.285,-18.981c1.796,-2.423 3.7,-4.759 5.714,-6.987Z" style="fill:#7ac92c;"/><path d="M787.884,489.477c10.644,-10.792 17.636,-24.781 21.426,-39.368c7.211,-27.757 -0.126,-60.488 -18.251,-82.569c-10.786,-13.156 -23.01,-22.966 -30.731,-38.715c-2.445,-4.997 -4.513,-10.665 -5.531,-16.152c-1.681,-9.119 -1.56,-21.049 -6.383,-29.23c-0.907,6.606 -2.345,13.529 -2.566,20.179c-0.564,16.617 5.73,32.525 15.73,45.657c5.597,7.36 12.6,13.466 18.629,20.455c16.378,18.999 24.811,43.17 21.599,68.236c-1.857,14.496 -9.985,31.085 -19.464,42.144c-2.091,2.441 -8.208,7.104 -9.049,9.9c4.58,-0.919 9.9,-0.478 14.591,-0.537Z" style="fill:#fefefe;fill-rule:nonzero;"/><path d="M749.41,476.298c4.591,-3.77 9.06,-7.793 12.345,-12.787c7.821,-11.873 10.078,-26.731 7.179,-40.553c-2.798,-13.372 -11.172,-24.924 -22.577,-32.331c-10.355,-6.729 -24.614,-9.547 -36.782,-6.946c-15.387,3.29 -25.852,11.576 -34.37,24.626c-6.958,14.057 -9.292,26.49 -4.148,41.661c4.557,13.436 14.425,24.839 27.224,31.047c11.316,5.489 24.923,6.565 36.859,2.392c4.933,-1.724 9.911,-4.228 14.27,-7.109Z" style="fill:#fefefe;fill-rule:nonzero;"/><path d="M682.429,418.374c-4.624,11.822 -4.58,21.113 0.619,32.826c4.447,10.029 12.733,17.443 23.02,21.229c10.543,3.88 21.206,3.171 31.295,-1.637l4.171,-2.323c-14.956,-9.416 -28.176,-19.742 -41.328,-31.547c-6.571,-5.887 -12.899,-11.123 -17.777,-18.548Z" style="fill:#5eb838;fill-rule:nonzero;"/><path d="M741.534,468.469c6.073,-3.825 10.652,-9.219 13.86,-15.596c4.691,-9.326 5.863,-21.417 2.423,-31.345c-3.474,-10.034 -10.73,-18.751 -20.365,-23.35c-10.078,-4.813 -21.162,-6.376 -31.782,-2.348c-11.018,4.184 -18.341,12.036 -23.241,22.544c4.878,7.425 11.206,12.661 17.777,18.548c13.152,11.805 26.372,22.131 41.328,31.547Z" style="fill:#7ac92c;fill-rule:nonzero;"/><g><path d="M669.166,402.677c3.08,4.173 20.706,-26.408 52.472,-46.104c-0,0 -12.053,-32.182 -10.277,-48.667c1.831,-16.991 21.261,-53.281 21.261,-53.281c-0,-0 -59.029,-19.733 -88.853,-18.338c-29.825,1.394 -90.094,26.704 -90.094,26.704c-0,0 28.878,-2.873 42.097,1.878c13.655,4.908 33.427,15.303 39.838,27.571c6.411,12.268 -1.373,46.037 -1.373,46.037c-0,0 20.83,7.876 23.762,17.205c3.007,9.563 -1.551,31.757 -1.551,31.757c-0,-0 9.637,11.065 12.718,15.238Z" style="fill:#7ac92c;"/><path d="M657.522,383.004c0,0 25.306,-43.319 33.789,-62.82c7.689,-17.672 19.339,-54.487 19.339,-54.487c-0,0 -24.847,18.105 -35.903,28.716c-12.268,11.774 -39.956,44.324 -39.956,44.324c-0,-0 13.126,6.82 19.381,11.921c6.667,5.438 3.35,32.346 3.35,32.346Z" style="fill:#a5e65a;"/><path d="M636.989,331.456c-0,0 15.386,-23.924 27.143,-35.558c11.861,-11.737 45.53,-36.762 45.53,-36.762c0,0 -30.49,-9.438 -63.458,-10.639c-23.813,-0.867 -79.931,13.309 -79.931,13.309c0,0 26.648,4.908 39.071,9.242c10.762,3.755 24.38,8.486 28.151,19.242c3.857,10.999 3.494,41.166 3.494,41.166Z" style="fill:#5eb838;"/></g><defs><linearGradient id="_Linear1" x1="0" y1="0" x2="1" y2="0" gradientUnits="userSpaceOnUse" gradientTransform="matrix(5.69531,-131.669,131.669,5.69531,754.282,816.008)"><stop offset="0" style="stop-color:#96dfea;stop-opacity:1"/><stop offset="1" style="stop-color:#effafc;stop-opacity:1"/></linearGradient></defs></svg>