<?xml version="1.0" encoding="utf-8" ?>
<svg xmlns="http://www.w3.org/2000/svg" xmlns:xlink="http://www.w3.org/1999/xlink" width="511" height="511">
	<path fill="#4BF4EA" fill-opacity="0.98823529" transform="scale(0.5 0.5)" d="M500.433 366.217L503.727 365.409L503.616 365.943C503.207 368.026 503.289 369.426 503.625 371.481C504.015 373.864 502.89 376.112 503.567 378.743C504.408 382.01 502.714 387.124 504.535 389.828L504.991 389.658C505.621 389.437 505.361 389.488 505.993 389.488L506.662 389.938C507.526 390.462 507.877 390.517 508.849 390.521L509.148 391.035L508.827 391.735C508.394 392.7 508.549 392.303 508.25 393.255L506.773 394.216C506.022 394.717 505.563 395.383 504.875 395.875L504.032 396.325L504.48 397.202C503.339 398.026 503.132 398.236 501.75 398.343C497.436 395.414 493.78 391.716 489.943 388.21C486.561 385.119 483.044 382.233 479.819 378.966C483.507 376.084 487.84 373.838 491.841 371.404C494.695 369.668 497.392 367.616 500.433 366.217Z"/>
	<path fill="#00B7A3" transform="scale(0.5 0.5)" d="M575.444 409.76L576.394 409.668C578.799 409.328 580.113 407.042 582.253 406.462C582.33 409.763 582.196 411.453 581.076 414.532C580.761 415.398 580.83 415.765 581.062 416.611C581.866 419.548 581.335 423.744 581.328 426.827C581.327 427.271 581.153 429.013 581.319 429.365C581.966 430.737 583.905 432.636 584.967 433.75C585.187 434.761 585.164 434.005 584.685 435.093L584.378 436C582.629 437.181 580.918 438.687 579.003 439.502C578.107 439.883 577.787 440.202 577.25 441L576.625 441.002L575.922 441.777L576.003 442.54L575.909 442.771L561.179 452.355L548.094 441.204C545.052 438.543 541.716 436.068 539.454 432.687C545.916 427.658 553.781 423.488 560.73 419.07C565.559 415.999 570.298 412.236 575.444 409.76Z"/>
	<path fill="#00B7A3" transform="scale(0.5 0.5)" d="M556.404 238.284L574.913 226.647C583.581 230.716 593.714 236.825 600.877 243.242C596.463 247.536 590.234 250.349 585.04 253.728L571.291 262.671C568.857 264.238 566.268 266.213 563.638 267.374L563.556 267.063C562.747 266.84 562.849 266.715 562 267.255L561.5 267.75C559.303 269.059 562.222 266.8 560.078 268.516L559.5 269C558.894 268.4 559.071 268.692 558.744 267.886L558.527 267.305C557.857 266.813 557.404 266.411 556.567 266.256L556.032 266.174C554.937 265.675 553.713 263.926 553.392 262.782C552.984 261.324 552.488 259.715 552.311 258.216L552.244 257.5C551.778 254.942 551.09 250.862 552.007 248.389C552.512 247.027 551.748 244.211 551.642 242.606L556.593 239.127L556.404 238.284Z"/>
	<defs>
		<linearGradient id="gradient_0" gradientUnits="userSpaceOnUse" x1="496.58597" y1="757.54791" x2="426.41791" y2="784.66846">
			<stop offset="0" stop-color="#00D6C6"/>
			<stop offset="1" stop-color="#00FFF1" stop-opacity="0.98823529"/>
		</linearGradient>
	</defs>
	<path fill="url(#gradient_0)" transform="scale(0.5 0.5)" d="M498.606 766.276L447.69 799.227C444.078 796.8 424.276 783.294 423.581 780.75C425.299 778.701 428.244 777.393 430.5 775.991L444.017 767.385L488.938 738.635C489.775 739.491 490.032 739.383 490.052 740.634C490.065 741.392 490.171 742.022 490.313 742.76C490.588 744.191 490.549 745.267 489.796 746.53C489.9 748.185 490.068 748.801 490.852 750.261C492.16 752.694 492.255 756.524 493.639 758.685C493.81 758.953 495.149 759.665 495.446 759.86C498.99 762.197 498.951 762.043 498.606 766.276Z"/>
	<defs>
		<linearGradient id="gradient_1" gradientUnits="userSpaceOnUse" x1="452.37405" y1="700.38873" x2="370.82358" y2="723.37408">
			<stop offset="0" stop-color="#00D6C7"/>
			<stop offset="1" stop-color="#00FFF9" stop-opacity="0.98823529"/>
		</linearGradient>
	</defs>
	<path fill="url(#gradient_1)" transform="scale(0.5 0.5)" d="M450.944 705.815C450.059 706.917 447.907 707.951 446.669 708.755L434.846 716.406L406.116 734.967L387.738 746.75C381.012 739.979 375.075 731.27 369.336 723.611L446.256 674.561C446.238 676.436 445.957 678.726 446.611 680.497L446.205 681.132C445.068 682.999 444.931 686.311 445.422 688.413C445.638 689.338 446.175 690.069 446.47 690.952C446.97 692.451 446.83 694.972 447.479 696.243C447.905 697.077 448.884 698.021 449.482 698.777C451.313 699.373 451.443 699.483 452.632 701.002C452.675 701.924 452.922 702.685 452.377 703.5L451.386 704.383L451.252 704.94C451.082 705.616 451.19 705.365 450.944 705.815Z"/>
	<path fill="#00B7A3" transform="scale(0.5 0.5)" d="M691.757 426.25L693.047 426.344C693.999 430.25 689.05 444.715 687.864 449.347C686.983 452.793 685.618 456.102 684.384 459.433C683.689 461.311 683.018 463.622 681.69 465.154C679.064 468.183 674.209 470.566 670.834 472.717L650.056 485.907L620.581 504.623L608.737 494.983C605.483 491.889 601.981 489.416 599.173 485.855L599.347 484.877C601.312 482.823 603.6 481.846 606 480.433L618 472.978L691.757 426.25Z"/>
	<path fill="#4BF4EA" fill-opacity="0.98823529" transform="scale(0.5 0.5)" d="M407.993 517.25L408.811 516.996C408.861 516.988 409.9 517.036 410 517.082C411.708 517.869 414.059 520.58 415.459 521.863L430.409 535.822C422.218 543.446 411.291 548.804 401.891 554.79L343.662 591.91L329.7 600.637L332.412 584C333.199 579.301 334.715 574.61 335.926 570C336.527 567.712 337.027 564.288 338.471 562.377C340.396 559.828 343.841 558.151 346.5 556.475L357.174 549.649L397.481 523.869C400.768 521.713 404.251 519.95 407.45 517.647L407.993 517.25Z"/>
	<defs>
		<linearGradient id="gradient_2" gradientUnits="userSpaceOnUse" x1="546.66956" y1="646.95752" x2="442.08392" y2="677.86462">
			<stop offset="0" stop-color="#00A28B"/>
			<stop offset="1" stop-color="#00D7C9"/>
		</linearGradient>
	</defs>
	<path fill="url(#gradient_2)" transform="scale(0.5 0.5)" d="M446.256 674.561L501.148 639.355L519.5 627.618C521.428 626.431 523.759 624.417 525.951 623.969L548.13 642.877C543.922 646.759 539.364 649.041 534.606 652.117L507.5 669.509L475.236 690.572C467.417 695.749 459.288 701.562 450.944 705.815C451.19 705.365 451.082 705.616 451.252 704.94L451.386 704.383L452.377 703.5C452.922 702.685 452.675 701.924 452.632 701.002C451.443 699.483 451.313 699.373 449.482 698.777C448.884 698.021 447.905 697.077 447.479 696.243C446.83 694.972 446.97 692.451 446.47 690.952C446.175 690.069 445.638 689.338 445.422 688.413C444.931 686.311 445.068 682.999 446.205 681.132L446.611 680.497C445.957 678.726 446.238 676.436 446.256 674.561Z"/>
	<defs>
		<linearGradient id="gradient_3" gradientUnits="userSpaceOnUse" x1="604.2887" y1="695.4812" x2="487.42346" y2="743.08118">
			<stop offset="0" stop-color="#009181"/>
			<stop offset="1" stop-color="#00D7C8"/>
		</linearGradient>
	</defs>
	<path fill="url(#gradient_3)" transform="scale(0.5 0.5)" d="M488.938 738.635L584.938 676.553C587.891 677.839 590.752 680.915 593.125 683.093L606.677 696.064C605.665 698.467 599.668 701.449 597.357 702.889L573.6 718.015L498.606 766.276C498.951 762.043 498.99 762.197 495.446 759.86C495.149 759.665 493.81 758.953 493.639 758.685C492.255 756.524 492.16 752.694 490.852 750.261C490.068 748.801 489.9 748.185 489.796 746.53C490.549 745.267 490.588 744.191 490.313 742.76C490.171 742.022 490.065 741.392 490.052 740.634C490.032 739.383 489.775 739.491 488.938 738.635Z"/>
	<defs>
		<linearGradient id="gradient_4" gradientUnits="userSpaceOnUse" x1="688.76483" y1="385.0177" x2="578.7132" y2="393.70767">
			<stop offset="0" stop-color="#00887D"/>
			<stop offset="1" stop-color="#00CAB2"/>
		</linearGradient>
	</defs>
	<path fill="url(#gradient_4)" transform="scale(0.5 0.5)" d="M575.444 409.76C578.668 407.08 582.459 404.98 585.975 402.697L604.168 390.932L657.975 356.072L680.018 341.795C681.979 345.967 683.099 349.994 684.537 354.34C686.31 359.698 688.011 364.597 688.841 370.203C683.723 375.253 676.256 378.819 670.188 382.734L628.158 409.654L592.499 432.368C587.097 435.798 581.609 439.947 575.909 442.771L576.003 442.54L575.922 441.777L576.625 441.002L577.25 441C577.787 440.202 578.107 439.883 579.003 439.502C580.918 438.687 582.629 437.181 584.378 436L584.685 435.093C585.164 434.005 585.187 434.761 584.967 433.75C583.905 432.636 581.966 430.737 581.319 429.365C581.153 429.013 581.327 427.271 581.328 426.827C581.335 423.744 581.866 419.548 581.062 416.611C580.83 415.765 580.761 415.398 581.076 414.532C582.196 411.453 582.33 409.763 582.253 406.462C580.113 407.042 578.799 409.328 576.394 409.668L575.444 409.76Z"/>
	<defs>
		<linearGradient id="gradient_5" gradientUnits="userSpaceOnUse" x1="560.82904" y1="278.97601" x2="420.58841" y2="310.15488">
			<stop offset="0" stop-color="#00C6AF"/>
			<stop offset="1" stop-color="#00FFF5" stop-opacity="0.98823529"/>
		</linearGradient>
	</defs>
	<path fill="url(#gradient_5)" transform="scale(0.5 0.5)" d="M556.404 238.284L556.593 239.127L551.642 242.606C551.748 244.211 552.512 247.027 552.007 248.389C551.09 250.862 551.778 254.942 552.244 257.5L552.311 258.216C552.488 259.715 552.984 261.324 553.392 262.782C553.713 263.926 554.937 265.675 556.032 266.174L556.567 266.256C557.404 266.411 557.857 266.813 558.527 267.305L558.744 267.886C559.071 268.692 558.894 268.4 559.5 269L560.078 268.516C562.222 266.8 559.303 269.059 561.5 267.75L562 267.255C562.849 266.715 562.747 266.84 563.556 267.063L563.638 267.374C563.197 268.175 561.035 269.217 560.152 269.794L547.769 277.844L484.333 319.042C470.977 327.792 457.775 337.757 443.861 345.517L421.971 325.403C424.776 322.287 429.837 320.087 433.422 317.818L455.814 303.311L523.672 259.266L556.404 238.284Z"/>
	<path fill="#4BF4EA" transform="scale(0.5 0.5)" d="M467.587 569.839L489.135 589.858L353.253 677.778L345.612 682.94C340.843 674.409 337.472 664.616 335.543 655.046L467.587 569.839Z"/>
	<defs>
		<linearGradient id="gradient_6" gradientUnits="userSpaceOnUse" x1="656.92584" y1="321.29755" x2="497.08142" y2="348.82355">
			<stop offset="0" stop-color="#008B80"/>
			<stop offset="1" stop-color="#00F2D6" stop-opacity="0.98823529"/>
		</linearGradient>
	</defs>
	<path fill="url(#gradient_6)" transform="scale(0.5 0.5)" d="M500.433 366.217L528.678 347.766L593.189 306.196L628.243 283.732C631.476 281.749 634.53 279.235 638.073 277.851C641.052 280.747 643.241 283.932 645.79 287.181L655.181 299.174C654.396 300.599 652.866 301.686 651.536 302.608L630.884 315.729L585.186 345.118L519.985 386.961L504.48 397.202L504.032 396.325L504.875 395.875C505.563 395.383 506.022 394.717 506.773 394.216L508.25 393.255C508.549 392.303 508.394 392.7 508.827 391.735L509.148 391.035L508.849 390.521C507.877 390.517 507.526 390.462 506.662 389.938L505.993 389.488C505.361 389.488 505.621 389.437 504.991 389.658L504.535 389.828C502.714 387.124 504.408 382.01 503.567 378.743C502.89 376.112 504.015 373.864 503.625 371.481C503.289 369.426 503.207 368.026 503.616 365.943L503.727 365.409L500.433 366.217Z"/>
	<path fill="#4BF4EA" transform="scale(0.5 0.5)" d="M341.762 448.376C346.518 452.674 349.976 459.219 354.058 464.269C359.71 471.26 366.154 477.187 372.716 483.297C358.736 493.639 346.215 506.604 336.068 520.729C310.191 556.748 303.287 602.294 310.551 645.454C316.236 679.236 332.177 709.893 351.795 737.573C365.615 757.074 381.443 775.195 399.606 790.779C409.07 798.899 418.926 806.966 429.25 813.959L446.915 825.326L422.135 840.622L406.164 849.919L404.5 849.049C399.524 846.538 395.048 842.84 390.528 839.581C367.572 823.028 345.887 803.797 327.946 781.818C295.96 742.632 270.796 694.323 264.483 643.659C262.249 625.734 262.457 608.187 264.434 590.25C269.316 545.944 290.867 504.539 319.501 471.071C326.303 463.12 333.54 454.894 341.762 448.376Z"/>
	<defs>
		<linearGradient id="gradient_7" gradientUnits="userSpaceOnUse" x1="762.81921" y1="376.659" x2="569.30579" y2="369.63422">
			<stop offset="0" stop-color="#FF2E76"/>
			<stop offset="1" stop-color="#FF74B3"/>
		</linearGradient>
	</defs>
	<path fill="url(#gradient_7)" transform="scale(0.5 0.5)" d="M611.99 173.75C612.625 173.516 613.22 173.405 613.904 173.381C616.356 173.295 621.523 177.594 623.675 179.042C647.958 195.383 669.531 214.329 689.333 235.853C722.639 272.056 749.531 318.22 759.144 366.762C762.33 382.848 763.168 399.732 762.448 416.093C759.704 478.443 728.433 531.778 683.207 573.223L674.512 560.981L654.181 537.658C656.992 534.594 660.379 531.884 663.366 528.952C672.435 520.045 680.913 510.993 688.089 500.455C712.99 463.887 721.888 418.09 713.475 374.75C706.88 340.771 689.96 309.672 669.446 282.187C661.206 271.145 652.286 260.23 642.455 250.553C632.187 240.445 621.113 231.358 609.58 222.74C602.635 217.551 595.107 212.546 587.653 208.123C582.772 205.226 577.671 202.82 572.96 199.63L611.99 173.75Z"/>
	<path fill="#4BF4EA" transform="scale(0.5 0.5)" d="M662.413 114.25L662.706 114.496L662.75 115.234L437.669 260.332C409.763 282.273 388.277 314.399 384.291 350.116C381.715 373.194 387.394 396.826 399.566 416.5C412.847 437.967 434.282 454.443 452.765 471.308L540.35 552.501L579.714 588.821C586.336 595.101 593.722 601.444 599.343 608.649C613.929 627.347 619.539 651.541 616.558 674.905L592.334 652.975L469.167 542.018L417.36 494.272C402.257 480.235 385.92 466.438 372.375 450.873C352.922 428.519 340.111 399.016 338.147 369.386C337.212 355.279 337.85 340.82 340.926 327C347.119 299.172 363.271 270.684 382.023 249.33C403.639 224.715 428.401 206.019 455.837 188.33C493.637 163.959 533.541 144.898 576.443 131.337C604.792 122.376 632.706 116.256 662.413 114.25Z"/>
	<path fill="#0AA2DF" transform="scale(0.5 0.5)" d="M407.976 343.75L408.981 343.787L436.851 369.476L499.615 426.246L536.632 461.012L600.541 519.425L626.366 543.194C636.382 552.413 646.67 561.902 654.922 572.77C670.333 593.068 681.095 617.497 685.19 642.644C692.146 685.35 677.919 726.17 653.086 760.562C632.705 788.789 605.834 813.148 577.127 832.742C565.808 840.467 553.906 847.156 541.996 853.9C497.483 879.103 447.74 898.057 397.092 906.192C388.23 907.992 379.215 908.736 370.243 909.784C366.405 910.232 362.62 911.216 358.75 911.178L358.112 910.5C359.039 908.636 362.234 906.712 363.912 905.408C374.954 896.823 386.625 889.761 398.429 882.344L534.183 799.816C545.273 792.97 556.45 785.944 566.919 778.173C584.194 765.35 600.884 749.658 613.658 732.303C627.305 713.762 637.881 691.14 639.767 667.949C640.969 653.178 638.458 637.65 633.442 623.752C629.725 613.454 624.725 603.678 617.975 595.018C609.668 584.359 598.504 575.353 588.507 566.298L555.966 536.397L461.206 450.125C444.233 434.481 424.469 419.399 413.819 398.456C409.924 390.795 407.472 381.968 406.297 373.46C405.44 367.255 404.649 348.256 407.976 343.75Z"/>
</svg>
